<svg class="main-svg" xmlns="http://www.w3.org/2000/svg" xmlns:xlink="http://www.w3.org/1999/xlink" width="1600" height="900" style="" viewBox="0 0 1600 900"><rect x="0" y="0" width="1600" height="900" style="fill: rgb(0, 0, 0); fill-opacity: 1;"/><defs id="defs-325da0"><g class="clips"><clipPath id="clip325da0xyplot" class="plotclip"><rect width="1280" height="720"/></clipPath><clipPath class="axesclip" id="clip325da0x"><rect x="80" y="0" width="1280" height="900"/></clipPath><clipPath class="axesclip" id="clip325da0y"><rect x="0" y="100" width="1600" height="720"/></clipPath><clipPath class="axesclip" id="clip325da0xy"><rect x="80" y="100" width="1280" height="720"/></clipPath></g><g class="gradients"/><g class="patterns"/></defs><g class="bglayer"/><g class="layer-below"><g class="imagelayer"/><g class="shapelayer"/></g><g class="cartesianlayer"><g class="subplot xy"><g class="layer-subplot"><g class="shapelayer"/><g class="imagelayer"/></g><g class="minor-gridlayer"><g class="x"/><g class="y"/></g><g class="gridlayer"><g class="x"><path class="xgrid crisp" transform="translate(81.29,0)" d="M0,100v720" style="stroke: rgb(40, 52, 66); stroke-opacity: 1; stroke-width: 1px;"/><path class="xgrid crisp" transform="translate(221.14,0)" d="M0,100v720" style="stroke: rgb(40, 52, 66); stroke-opacity: 1; stroke-width: 1px;"/><path class="xgrid crisp" transform="translate(360.98,0)" d="M0,100v720" style="stroke: rgb(40, 52, 66); stroke-opacity: 1; stroke-width: 1px;"/><path class="xgrid crisp" transform="translate(498.53,0)" d="M0,100v720" style="stroke: rgb(40, 52, 66); stroke-opacity: 1; stroke-width: 1px;"/><path class="xgrid crisp" transform="translate(638.37,0)" d="M0,100v720" style="stroke: rgb(40, 52, 66); stroke-opacity: 1; stroke-width: 1px;"/><path class="xgrid crisp" transform="translate(778.21,0)" d="M0,100v720" style="stroke: rgb(40, 52, 66); stroke-opacity: 1; stroke-width: 1px;"/><path class="xgrid crisp" transform="translate(920.35,0)" d="M0,100v720" style="stroke: rgb(40, 52, 66); stroke-opacity: 1; stroke-width: 1px;"/><path class="xgrid crisp" transform="translate(1060.19,0)" d="M0,100v720" style="stroke: rgb(40, 52, 66); stroke-opacity: 1; stroke-width: 1px;"/><path class="xgrid crisp" transform="translate(1200.03,0)" d="M0,100v720" style="stroke: rgb(40, 52, 66); stroke-opacity: 1; stroke-width: 1px;"/><path class="xgrid crisp" transform="translate(1335.29,0)" d="M0,100v720" style="stroke: rgb(40, 52, 66); stroke-opacity: 1; stroke-width: 1px;"/></g><g class="y"><path class="ygrid crisp" transform="translate(0,669.85)" d="M80,0h1280" style="stroke: rgb(40, 52, 66); stroke-opacity: 1; stroke-width: 1px;"/><path class="ygrid crisp" transform="translate(0,550.1700000000001)" d="M80,0h1280" style="stroke: rgb(40, 52, 66); stroke-opacity: 1; stroke-width: 1px;"/><path class="ygrid crisp" transform="translate(0,430.49)" d="M80,0h1280" style="stroke: rgb(40, 52, 66); stroke-opacity: 1; stroke-width: 1px;"/><path class="ygrid crisp" transform="translate(0,310.82)" d="M80,0h1280" style="stroke: rgb(40, 52, 66); stroke-opacity: 1; stroke-width: 1px;"/><path class="ygrid crisp" transform="translate(0,191.14)" d="M80,0h1280" style="stroke: rgb(40, 52, 66); stroke-opacity: 1; stroke-width: 1px;"/></g></g><g class="zerolinelayer"><path class="yzl zl crisp" transform="translate(0,789.53)" d="M80,0h1280" style="stroke: rgb(40, 52, 66); stroke-opacity: 1; stroke-width: 2px;"/></g><g class="layer-between"><g class="shapelayer"/><g class="imagelayer"/></g><path class="xlines-below"/><path class="ylines-below"/><g class="overlines-below"/><g class="xaxislayer-below"/><g class="yaxislayer-below"/><g class="overaxes-below"/><g class="overplot"><g class="xy" transform="translate(80,100)" clip-path="url(#clip325da0xyplot)"><g class="scatterlayer mlayer"><g class="trace scatter trace4cda5e" style="stroke-miterlimit: 2; opacity: 1;"><g class="fills"/><g class="errorbars"/><g class="lines"><path class="js-line" d="M0,612.15L17.29,562.41L33.28,567.94L49.26,551.36L65.25,584.52L81.23,584.52L97.21,595.57L113.2,595.57L129.18,606.62L145.16,545.83L161.15,578.99L177.13,623.21L193.11,595.57L209.1,567.94L225.08,612.15L241.06,617.68L257.05,656.37L273.03,684L289.02,584.52L305,645.31L320.98,606.62L336.97,601.1L352.95,606.62L368.93,634.26L384.92,601.1L400.9,656.37L416.88,595.57L432.87,578.99L448.85,512.67L464.84,418.71L480.82,435.29L496.8,357.92L512.79,440.82L528.77,407.66L544.75,391.08L560.74,313.7L576.72,363.45L592.7,352.39L608.69,429.77L624.67,269.49L640.66,413.19L656.64,473.98L672.62,462.93L688.61,413.19L704.59,424.24L720.57,335.81L736.56,429.77L752.54,413.19L768.52,429.77L784.51,473.98L800.49,402.13L816.48,429.77L832.46,451.87L848.44,330.29L864.43,275.02L880.41,352.39L896.39,291.6L912.38,341.34L928.36,219.75L944.34,302.65L960.33,286.07L976.31,286.07L992.29,341.34L1008.28,308.18L1024.26,402.13L1040.25,490.56L1056.23,230.8L1072.21,335.81L1088.2,518.2L1104.18,645.31L1120.16,407.66L1136.15,330.29L1152.13,440.82L1168.11,302.65L1184.1,346.87L1200.08,391.08L1216.07,391.08L1232.05,319.23L1248.03,258.44L1264.02,252.91L1280,396.61" style="vector-effect: none; fill: none; stroke: rgb(230, 159, 0); stroke-opacity: 1; stroke-width: 2px; opacity: 1;"/></g><g class="points"/><g class="text"/></g><g class="trace scatter tracef54d88" style="stroke-miterlimit: 2; opacity: 1;"><g class="fills"/><g class="errorbars"/><g class="lines"><path class="js-line" d="M0,464.32L17.29,447.64L33.28,422.62L49.26,481L65.25,506.03L81.23,472.66L97.21,355.89L113.2,447.64L129.18,430.96L145.16,481L161.15,430.96L177.13,539.39L193.11,572.75L209.1,489.34L225.08,439.3L241.06,564.41L257.05,581.09L273.03,531.05L289.02,539.39L305,506.03L320.98,372.57L336.97,481L352.95,497.69L368.93,572.75L384.92,572.75L400.9,556.07L416.88,455.98L432.87,514.37L448.85,522.71L464.84,405.94L480.82,481L496.8,330.87L512.79,422.62L528.77,514.37L544.75,455.98L560.74,489.34L576.72,197.41L592.7,355.89L608.69,531.05L624.67,447.64L640.66,447.64L672.62,397.59L688.61,472.66L704.59,481L720.57,355.89L736.56,405.94L752.54,405.94L768.52,455.98L784.51,539.39L800.49,439.3L816.48,447.64L832.46,355.89L848.44,405.94L864.43,422.62L880.41,322.53L896.39,314.19L912.38,522.71L928.36,405.94L944.34,380.91L960.33,405.94L976.31,397.59L992.29,305.84L1008.28,255.8L1024.26,280.82L1040.25,330.87L1056.23,322.53L1072.21,280.82L1088.2,330.87L1104.18,539.39L1120.16,539.39L1136.15,380.91L1152.13,372.57L1168.11,489.34L1184.1,472.66L1200.08,464.32L1216.07,347.55L1232.05,339.21L1248.03,389.25L1264.02,489.34L1280,355.89" style="vector-effect: none; fill: none; stroke: rgb(86, 180, 233); stroke-opacity: 1; stroke-width: 2px; opacity: 1;"/></g><g class="points"/><g class="text"/></g><g class="trace scatter traceecb22a" style="stroke-miterlimit: 2; opacity: 1;"><g class="fills"/><g class="errorbars"/><g class="lines"><path class="js-line" d="M0,440.77L17.29,523.69L33.28,488.15L49.26,405.23L65.25,393.39L81.23,535.53L97.21,381.54L113.2,452.61L129.18,511.84L145.16,500L161.15,511.84L177.13,393.39L193.11,476.3L209.1,274.93L225.08,523.69L241.06,500L257.05,571.07L273.03,547.38L289.02,405.23L305,452.61L320.98,440.77L336.97,523.69L352.95,547.38L368.93,511.84L384.92,511.84L400.9,440.77L416.88,440.77L432.87,535.53L448.85,488.15L464.84,417.08L480.82,428.92L496.8,464.46L512.79,476.3L528.77,357.85L544.75,393.39L560.74,428.92L576.72,381.54L592.7,523.69L608.69,393.39L624.67,369.69L640.66,298.62L656.64,298.62L672.62,488.15L688.61,405.23L704.59,452.61L720.57,357.85L736.56,369.69L752.54,393.39L768.52,381.54L784.51,405.23L800.49,381.54L816.48,428.92L832.46,464.46L848.44,428.92L864.43,440.77L880.41,251.24L896.39,440.77L912.38,417.08L928.36,476.3L944.34,405.23L960.33,464.46L976.31,417.08L992.29,440.77L1008.28,274.93L1024.26,464.46L1040.25,417.08L1056.23,357.85L1072.21,428.92L1088.2,298.62L1104.18,606.61L1120.16,535.53L1136.15,476.3L1152.13,286.77L1168.11,452.61L1184.1,440.77L1200.08,476.3L1216.07,440.77L1232.05,322.31L1248.03,322.31L1264.02,417.08L1280,440.77" style="vector-effect: none; fill: none; stroke: rgb(0, 158, 115); stroke-opacity: 1; stroke-width: 2px; opacity: 1;"/></g><g class="points"/><g class="text"/></g><g class="trace scatter tracecfb6e6" style="stroke-miterlimit: 2; opacity: 1;"><g class="fills"/><g class="errorbars"/><g class="lines"><path class="js-line" d="M0,652.57L17.29,652.57L33.28,615.61L49.26,615.61L65.25,597.13L81.23,671.05L97.21,652.57L113.2,634.09L129.18,634.09L145.16,652.57L161.15,578.65L177.13,597.13L193.11,652.57L209.1,671.05L225.08,615.61L241.06,393.85L257.05,560.17L273.03,486.25L289.02,486.25L305,523.21L320.98,541.69L336.97,523.21L352.95,449.29L368.93,523.21L384.92,338.41L400.9,430.81L416.88,375.37L432.87,486.25L448.85,227.53L464.84,393.85L480.82,504.73L496.8,541.69L512.79,412.33L528.77,412.33L544.75,486.25L560.74,430.81L576.72,541.69L592.7,412.33L608.69,338.41L624.67,319.93L640.66,393.85L656.64,375.37L672.62,264.49L688.61,264.49L704.59,486.25L720.57,541.69L736.56,375.37L752.54,338.41L768.52,412.33L784.51,375.37L800.49,560.17L816.48,282.97L832.46,338.41L848.44,338.41L864.43,412.33L880.41,393.85L896.39,541.69L912.38,486.25L928.36,338.41L944.34,541.69L960.33,467.77L976.31,356.89L992.29,467.77L1008.28,467.77L1024.26,393.85L1040.25,615.61L1056.23,449.29L1072.21,301.45L1088.2,264.49L1104.18,486.25L1120.16,264.49L1136.15,319.93L1152.13,486.25L1168.11,412.33L1184.1,393.85L1200.08,375.37L1216.07,412.33L1232.05,449.29L1248.03,61.21L1264.02,227.53L1280,449.29" style="vector-effect: none; fill: none; stroke: rgb(240, 228, 66); stroke-opacity: 1; stroke-width: 2px; opacity: 1;"/></g><g class="points"/><g class="text"/></g><g class="trace scatter tracea539ab" style="stroke-miterlimit: 2; opacity: 1;"><g class="fills"/><g class="errorbars"/><g class="lines"><path class="js-line" d="M0,321.92L17.29,403.61L33.28,444.45L65.25,36L81.23,76.85L97.21,281.07L113.2,403.61L145.16,240.23L161.15,526.15L177.13,403.61L193.11,485.3L209.1,444.45L225.08,648.68L241.06,485.3L257.05,444.45L273.03,566.99L289.02,607.84L320.98,526.15L336.97,526.15L352.95,362.76L368.93,566.99L384.92,444.45L400.9,403.61L416.88,403.61L432.87,526.15L448.85,281.07L464.84,526.15L480.82,403.61L496.8,158.54L512.79,403.61L528.77,444.45L544.75,281.07L560.74,281.07L576.72,444.45L592.7,199.38L608.69,485.3L624.67,240.23L640.66,362.76L656.64,526.15L672.62,566.99L688.61,485.3L704.59,607.84L720.57,362.76L736.56,607.84L752.54,648.68L768.52,648.68L784.51,485.3L800.49,526.15L816.48,281.07L832.46,526.15L848.44,444.45L864.43,566.99L880.41,444.45L896.39,240.23L912.38,607.84L928.36,444.45L944.34,444.45L960.33,566.99L976.31,526.15L992.29,321.92L1008.28,485.3L1024.26,648.68L1056.23,403.61L1088.2,648.68L1104.18,648.68L1120.16,648.68L1136.15,566.99L1152.13,566.99L1168.11,648.68L1200.08,566.99L1216.07,648.68L1232.05,607.84L1248.03,526.15L1264.02,485.3L1280,607.84" style="vector-effect: none; fill: none; stroke: rgb(213, 94, 0); stroke-opacity: 1; stroke-width: 2px; opacity: 1;"/></g><g class="points"/><g class="text"/></g></g></g></g><path class="xlines-above crisp" d="M0,0" style="fill: none;"/><path class="ylines-above crisp" d="M0,0" style="fill: none;"/><g class="overlines-above"/><g class="xaxislayer-above"><g class="xtick"><text text-anchor="middle" x="0" y="833" transform="translate(81.29,0)" style="font-family: 'Open Sans', verdana, arial, sans-serif; font-size: 12px; fill: rgb(242, 245, 250); fill-opacity: 1; white-space: pre; opacity: 1;">Sep 2023</text></g><g class="xtick"><text text-anchor="middle" x="0" y="833" style="font-family: 'Open Sans', verdana, arial, sans-serif; font-size: 12px; fill: rgb(242, 245, 250); fill-opacity: 1; white-space: pre; opacity: 1;" transform="translate(221.14,0)">Nov 2023</text></g><g class="xtick"><text text-anchor="middle" x="0" y="833" style="font-family: 'Open Sans', verdana, arial, sans-serif; font-size: 12px; fill: rgb(242, 245, 250); fill-opacity: 1; white-space: pre; opacity: 1;" transform="translate(360.98,0)">Jan 2024</text></g><g class="xtick"><text text-anchor="middle" x="0" y="833" style="font-family: 'Open Sans', verdana, arial, sans-serif; font-size: 12px; fill: rgb(242, 245, 250); fill-opacity: 1; white-space: pre; opacity: 1;" transform="translate(498.53,0)">Mar 2024</text></g><g class="xtick"><text text-anchor="middle" x="0" y="833" style="font-family: 'Open Sans', verdana, arial, sans-serif; font-size: 12px; fill: rgb(242, 245, 250); fill-opacity: 1; white-space: pre; opacity: 1;" transform="translate(638.37,0)">May 2024</text></g><g class="xtick"><text text-anchor="middle" x="0" y="833" style="font-family: 'Open Sans', verdana, arial, sans-serif; font-size: 12px; fill: rgb(242, 245, 250); fill-opacity: 1; white-space: pre; opacity: 1;" transform="translate(778.21,0)">Jul 2024</text></g><g class="xtick"><text text-anchor="middle" x="0" y="833" style="font-family: 'Open Sans', verdana, arial, sans-serif; font-size: 12px; fill: rgb(242, 245, 250); fill-opacity: 1; white-space: pre; opacity: 1;" transform="translate(920.35,0)">Sep 2024</text></g><g class="xtick"><text text-anchor="middle" x="0" y="833" style="font-family: 'Open Sans', verdana, arial, sans-serif; font-size: 12px; fill: rgb(242, 245, 250); fill-opacity: 1; white-space: pre; opacity: 1;" transform="translate(1060.19,0)">Nov 2024</text></g><g class="xtick"><text text-anchor="middle" x="0" y="833" style="font-family: 'Open Sans', verdana, arial, sans-serif; font-size: 12px; fill: rgb(242, 245, 250); fill-opacity: 1; white-space: pre; opacity: 1;" transform="translate(1200.03,0)">Jan 2025</text></g><g class="xtick"><text text-anchor="middle" x="0" y="833" style="font-family: 'Open Sans', verdana, arial, sans-serif; font-size: 12px; fill: rgb(242, 245, 250); fill-opacity: 1; white-space: pre; opacity: 1;" transform="translate(1335.29,0)">Mar 2025</text></g></g><g class="yaxislayer-above"><g class="ytick"><text text-anchor="end" x="79" y="4.199999999999999" transform="translate(0,789.53)" style="font-family: 'Open Sans', verdana, arial, sans-serif; font-size: 12px; fill: rgb(242, 245, 250); fill-opacity: 1; white-space: pre; opacity: 1;">0</text></g><g class="ytick"><text text-anchor="end" x="79" y="4.199999999999999" style="font-family: 'Open Sans', verdana, arial, sans-serif; font-size: 12px; fill: rgb(242, 245, 250); fill-opacity: 1; white-space: pre; opacity: 1;" transform="translate(0,669.85)">0.05</text></g><g class="ytick"><text text-anchor="end" x="79" y="4.199999999999999" style="font-family: 'Open Sans', verdana, arial, sans-serif; font-size: 12px; fill: rgb(242, 245, 250); fill-opacity: 1; white-space: pre; opacity: 1;" transform="translate(0,550.1700000000001)">0.1</text></g><g class="ytick"><text text-anchor="end" x="79" y="4.199999999999999" style="font-family: 'Open Sans', verdana, arial, sans-serif; font-size: 12px; fill: rgb(242, 245, 250); fill-opacity: 1; white-space: pre; opacity: 1;" transform="translate(0,430.49)">0.15</text></g><g class="ytick"><text text-anchor="end" x="79" y="4.199999999999999" style="font-family: 'Open Sans', verdana, arial, sans-serif; font-size: 12px; fill: rgb(242, 245, 250); fill-opacity: 1; white-space: pre; opacity: 1;" transform="translate(0,310.82)">0.2</text></g><g class="ytick"><text text-anchor="end" x="79" y="4.199999999999999" style="font-family: 'Open Sans', verdana, arial, sans-serif; font-size: 12px; fill: rgb(242, 245, 250); fill-opacity: 1; white-space: pre; opacity: 1;" transform="translate(0,191.14)">0.25</text></g></g><g class="overaxes-above"/></g></g><g class="polarlayer"/><g class="smithlayer"/><g class="ternarylayer"/><g class="geolayer"/><g class="funnelarealayer"/><g class="pielayer"/><g class="iciclelayer"/><g class="treemaplayer"/><g class="sunburstlayer"/><g class="glimages"/><defs id="topdefs-325da0"><g class="clips"/><clipPath id="legend325da0"><rect width="202" height="124" x="0" y="0"/></clipPath></defs><g class="layer-above"><g class="imagelayer"/><g class="shapelayer"/></g><g class="infolayer"><g class="legend" pointer-events="all" transform="translate(1385.6,100)"><rect class="bg" shape-rendering="crispEdges" width="202" height="124" x="0" y="0" style="stroke: rgb(68, 68, 68); stroke-opacity: 1; fill: rgb(0, 0, 0); fill-opacity: 1; stroke-width: 0px;"/><g class="scrollbox" transform="" clip-path="url(#legend325da0)"><text class="legendtitletext" text-anchor="start" x="2" y="18.2" style="font-family: 'Open Sans', verdana, arial, sans-serif; font-size: 14px; fill: rgb(242, 245, 250); fill-opacity: 1; white-space: pre;"><tspan style="font-weight:bold">Global Topic Representation</tspan></text><g class="groups"><g class="traces" transform="translate(0,32.7)" style="opacity: 1;"><text class="legendtext" text-anchor="start" x="40" y="4.680000000000001" style="font-family: 'Open Sans', verdana, arial, sans-serif; font-size: 12px; fill: rgb(242, 245, 250); fill-opacity: 1; white-space: pre;">Cybersecurity Solutions</text><g class="layers" style="opacity: 1;"><g class="legendfill"/><g class="legendlines"><path class="js-line" d="M5,0h30" style="fill: none; stroke: rgb(230, 159, 0); stroke-opacity: 1; stroke-width: 2px;"/></g><g class="legendsymbols"><g class="legendpoints"/></g></g><rect class="legendtoggle" x="0" y="-9.5" width="171.59375" height="19" style="fill: rgb(0, 0, 0); fill-opacity: 0;"/></g><g class="traces" transform="translate(0,51.7)" style="opacity: 1;"><text class="legendtext" text-anchor="start" x="40" y="4.680000000000001" style="font-family: 'Open Sans', verdana, arial, sans-serif; font-size: 12px; fill: rgb(242, 245, 250); fill-opacity: 1; white-space: pre;">Copyright in Asia</text><g class="layers" style="opacity: 1;"><g class="legendfill"/><g class="legendlines"><path class="js-line" d="M5,0h30" style="fill: none; stroke: rgb(86, 180, 233); stroke-opacity: 1; stroke-width: 2px;"/></g><g class="legendsymbols"><g class="legendpoints"/></g></g><rect class="legendtoggle" x="0" y="-9.5" width="171.59375" height="19" style="fill: rgb(0, 0, 0); fill-opacity: 0;"/></g><g class="traces" transform="translate(0,70.7)" style="opacity: 1;"><text class="legendtext" text-anchor="start" x="40" y="4.680000000000001" style="font-family: 'Open Sans', verdana, arial, sans-serif; font-size: 12px; fill: rgb(242, 245, 250); fill-opacity: 1; white-space: pre;">Mining Exploration</text><g class="layers" style="opacity: 1;"><g class="legendfill"/><g class="legendlines"><path class="js-line" d="M5,0h30" style="fill: none; stroke: rgb(0, 158, 115); stroke-opacity: 1; stroke-width: 2px;"/></g><g class="legendsymbols"><g class="legendpoints"/></g></g><rect class="legendtoggle" x="0" y="-9.5" width="171.59375" height="19" style="fill: rgb(0, 0, 0); fill-opacity: 0;"/></g><g class="traces" transform="translate(0,89.7)" style="opacity: 1;"><text class="legendtext" text-anchor="start" x="40" y="4.680000000000001" style="font-family: 'Open Sans', verdana, arial, sans-serif; font-size: 12px; fill: rgb(242, 245, 250); fill-opacity: 1; white-space: pre;">Semiconductors</text><g class="layers" style="opacity: 1;"><g class="legendfill"/><g class="legendlines"><path class="js-line" d="M5,0h30" style="fill: none; stroke: rgb(240, 228, 66); stroke-opacity: 1; stroke-width: 2px;"/></g><g class="legendsymbols"><g class="legendpoints"/></g></g><rect class="legendtoggle" x="0" y="-9.5" width="171.59375" height="19" style="fill: rgb(0, 0, 0); fill-opacity: 0;"/></g><g class="traces" transform="translate(0,108.7)" style="opacity: 1;"><text class="legendtext" text-anchor="start" x="40" y="4.680000000000001" style="font-family: 'Open Sans', verdana, arial, sans-serif; font-size: 12px; fill: rgb(242, 245, 250); fill-opacity: 1; white-space: pre;">Fraud Litigation</text><g class="layers" style="opacity: 1;"><g class="legendfill"/><g class="legendlines"><path class="js-line" d="M5,0h30" style="fill: none; stroke: rgb(213, 94, 0); stroke-opacity: 1; stroke-width: 2px;"/></g><g class="legendsymbols"><g class="legendpoints"/></g></g><rect class="legendtoggle" x="0" y="-9.5" width="171.59375" height="19" style="fill: rgb(0, 0, 0); fill-opacity: 0;"/></g></g></g><rect class="scrollbar" rx="20" ry="3" width="0" height="0" x="0" y="0" style="fill: rgb(128, 139, 164); fill-opacity: 1;"/></g><g class="g-gtitle"/><g class="g-xtitle"/><g class="g-ytitle"><text class="ytitle" transform="rotate(-90,35.81875,460)" x="35.81875" y="460" text-anchor="middle" style="opacity: 1; font-family: 'Open Sans', verdana, arial, sans-serif; font-size: 14px; fill: rgb(242, 245, 250); fill-opacity: 1; white-space: pre;">Normalized Frequency</text></g></g></svg>